<?xml version="1.0" encoding="utf-8"?>
<!-- Generator: Adobe Illustrator 21.1.0, SVG Export Plug-In . SVG Version: 6.00 Build 0)  -->
<svg version="1.1" id="Layer_1" xmlns="http://www.w3.org/2000/svg" xmlns:xlink="http://www.w3.org/1999/xlink" x="0px" y="0px"
	 viewBox="0 0 85 55" style="enable-background:new 0 0 85 55;" xml:space="preserve">
<style type="text/css">
	.st0{fill:#B3B3B3;}
	.st1{fill:#6C6BBD;}
	.st2{fill:#D32011;}
	.st3{fill:#0099DF;}
	.st4{fill:#110F0D;}
</style>
<path class="st0" d="M80.327,1C82.352,1,84,2.648,84,4.673v45.654C84,52.352,82.352,54,80.327,54H4.673C2.648,54,1,52.352,1,50.327
	V4.673C1,2.648,2.648,1,4.673,1H80.327 M80.327,0H4.673C2.103,0,0,2.103,0,4.673v45.654C0,52.897,2.103,55,4.673,55h75.654
	C82.897,55,85,52.897,85,50.327V4.673C85,2.103,82.897,0,80.327,0L80.327,0z"/>
<g>
	<polygon class="st1" points="48.306,30.815 36.657,30.815 36.657,9.881 48.306,9.881 	"/>
	<path class="st2" d="M37.397,20.348c0-4.247,1.988-8.029,5.085-10.467c-2.264-1.783-5.122-2.847-8.227-2.847
		c-7.352,0-13.312,5.961-13.312,13.314s5.96,13.314,13.312,13.314c3.106,0,5.963-1.064,8.227-2.847
		C39.385,28.378,37.397,24.595,37.397,20.348"/>
	<path class="st3" d="M64.021,20.348c0,7.353-5.96,13.314-13.312,13.314c-3.106,0-5.963-1.064-8.228-2.847
		c3.097-2.438,5.085-6.22,5.085-10.467s-1.988-8.029-5.085-10.467c2.265-1.783,5.123-2.847,8.228-2.847
		C58.062,7.035,64.021,12.995,64.021,20.348"/>
</g>
<path class="st4" d="M60.414,40.638c0.284,0,0.693,0.054,1.005,0.177l-0.435,1.329c-0.298-0.123-0.596-0.163-0.882-0.163
	c-0.922,0-1.383,0.596-1.383,1.668v3.636h-1.411v-6.484h1.397v0.787C59.07,41.018,59.6,40.638,60.414,40.638L60.414,40.638z
	 M55.2,42.089h-2.306v2.93c0,0.651,0.23,1.085,0.936,1.085c0.366,0,0.828-0.123,1.247-0.366l0.407,1.206
	c-0.447,0.312-1.152,0.503-1.762,0.503c-1.669,0-2.251-0.896-2.251-2.402v-2.956h-1.317v-1.289h1.317v-1.967h1.424v1.967H55.2
	V42.089L55.2,42.089z M37.143,43.473c0.151-0.936,0.719-1.574,1.723-1.574c0.908,0,1.492,0.57,1.641,1.574H37.143z M41.974,44.043
	c-0.014-2.022-1.262-3.405-3.081-3.405c-1.899,0-3.228,1.383-3.228,3.405c0,2.06,1.383,3.404,3.324,3.404
	c0.977,0,1.871-0.244,2.658-0.908l-0.693-1.045c-0.542,0.435-1.234,0.679-1.885,0.679c-0.908,0-1.736-0.421-1.939-1.587h4.815
	C41.96,44.408,41.974,44.232,41.974,44.043L41.974,44.043z M48.172,42.456c-0.393-0.245-1.192-0.557-2.02-0.557
	c-0.773,0-1.234,0.286-1.234,0.761c0,0.433,0.488,0.556,1.098,0.637l0.665,0.095c1.411,0.205,2.265,0.801,2.265,1.941
	c0,1.234-1.085,2.116-2.956,2.116c-1.059,0-2.036-0.272-2.809-0.842l0.665-1.099c0.475,0.366,1.182,0.679,2.158,0.679
	c0.963,0,1.478-0.284,1.478-0.787c0-0.365-0.366-0.57-1.14-0.677l-0.665-0.095c-1.452-0.205-2.239-0.856-2.239-1.913
	c0-1.289,1.059-2.076,2.7-2.076c1.031,0,1.967,0.231,2.644,0.679L48.172,42.456L48.172,42.456z M65.57,41.978
	c-0.29,0-0.559,0.051-0.809,0.152c-0.248,0.102-0.464,0.245-0.646,0.429c-0.182,0.183-0.325,0.404-0.429,0.66
	c-0.104,0.256-0.155,0.539-0.155,0.846c0,0.309,0.051,0.59,0.155,0.846c0.104,0.256,0.247,0.477,0.429,0.66
	c0.182,0.183,0.397,0.326,0.646,0.429c0.25,0.102,0.519,0.152,0.809,0.152c0.29,0,0.561-0.05,0.809-0.152
	c0.25-0.102,0.467-0.245,0.649-0.429c0.185-0.183,0.328-0.404,0.433-0.66c0.104-0.256,0.155-0.537,0.155-0.846
	c0-0.307-0.051-0.59-0.155-0.846c-0.106-0.256-0.248-0.477-0.433-0.66c-0.182-0.183-0.399-0.326-0.649-0.429
	C66.131,42.029,65.86,41.978,65.57,41.978L65.57,41.978z M65.57,40.638c0.503,0,0.969,0.087,1.397,0.262
	c0.429,0.174,0.8,0.415,1.112,0.72c0.314,0.306,0.557,0.668,0.734,1.084c0.177,0.418,0.266,0.871,0.266,1.36
	s-0.089,0.942-0.266,1.36c-0.177,0.416-0.421,0.779-0.734,1.085c-0.312,0.306-0.683,0.545-1.112,0.72
	c-0.429,0.174-0.894,0.261-1.397,0.261s-0.969-0.087-1.397-0.261c-0.429-0.175-0.797-0.415-1.107-0.72
	c-0.311-0.306-0.554-0.669-0.731-1.085c-0.177-0.418-0.266-0.871-0.266-1.36s0.089-0.942,0.266-1.36
	c0.177-0.416,0.421-0.778,0.731-1.084c0.311-0.306,0.679-0.547,1.107-0.72C64.601,40.725,65.067,40.638,65.57,40.638L65.57,40.638z
	 M28.901,44.043c0-1.14,0.747-2.076,1.967-2.076c1.166,0,1.953,0.896,1.953,2.076c0,1.18-0.787,2.074-1.953,2.074
	C29.648,46.117,28.901,45.182,28.901,44.043L28.901,44.043z M34.151,44.043v-3.242h-1.41v0.787c-0.449-0.584-1.126-0.95-2.048-0.95
	c-1.818,0-3.242,1.424-3.242,3.405c0,1.98,1.424,3.405,3.242,3.405c0.922,0,1.599-0.366,2.048-0.95v0.787h1.41V44.043z
	 M26.203,47.285v-4.07c0-1.533-0.977-2.564-2.55-2.577c-0.828-0.014-1.683,0.244-2.279,1.154c-0.447-0.719-1.154-1.154-2.144-1.154
	c-0.691,0-1.369,0.203-1.899,0.963v-0.8h-1.41v6.484h1.424V43.69c0-1.126,0.624-1.723,1.587-1.723c0.936,0,1.411,0.61,1.411,1.71
	v3.608h1.424V43.69c0-1.126,0.652-1.723,1.587-1.723c0.964,0,1.425,0.61,1.425,1.71v3.608H26.203L26.203,47.285z"/>
</svg>
