<?xml version="1.0" encoding="utf-8"?>
<!-- Generator: Adobe Illustrator 21.1.0, SVG Export Plug-In . SVG Version: 6.00 Build 0)  -->
<svg version="1.1" id="Layer_1" xmlns="http://www.w3.org/2000/svg" xmlns:xlink="http://www.w3.org/1999/xlink" x="0px" y="0px"
	 viewBox="0 0 85 55" style="enable-background:new 0 0 85 55;" xml:space="preserve">
<style type="text/css">
	.st0{fill:#B3B3B3;}
	.st1{fill:#FF5F00;}
	.st2{fill:#EB001B;}
	.st3{fill:#F79E1B;}
</style>
<path class="st0" d="M80.327,1C82.352,1,84,2.648,84,4.673v45.654C84,52.352,82.352,54,80.327,54H4.673C2.648,54,1,52.352,1,50.327
	V4.673C1,2.648,2.648,1,4.673,1H80.327 M80.327,0H4.673C2.103,0,0,2.103,0,4.673v45.654C0,52.897,2.103,55,4.673,55h75.654
	C82.897,55,85,52.897,85,50.327V4.673C85,2.103,82.897,0,80.327,0L80.327,0z"/>
<path d="M17.499,47.357v-4.032c0-1.546-0.941-2.554-2.554-2.554c-0.806,0-1.68,0.269-2.285,1.143
	c-0.47-0.739-1.143-1.143-2.151-1.143c-0.672,0-1.344,0.202-1.882,0.941v-0.806H7.217v6.452h1.411v-3.562
	c0-1.143,0.605-1.68,1.546-1.68s1.411,0.605,1.411,1.68v3.562h1.411v-3.562c0-1.143,0.672-1.68,1.546-1.68
	c0.941,0,1.411,0.605,1.411,1.68v3.562H17.499L17.499,47.357z M38.4,40.905h-2.285v-1.949h-1.411v1.949h-1.277v1.277h1.277v2.957
	c0,1.479,0.605,2.352,2.218,2.352c0.605,0,1.277-0.202,1.747-0.47l-0.403-1.21c-0.403,0.269-0.874,0.336-1.21,0.336
	c-0.672,0-0.941-0.403-0.941-1.075v-2.89H38.4V40.905L38.4,40.905z M50.363,40.771c-0.806,0-1.344,0.403-1.68,0.941v-0.806h-1.411
	v6.452h1.411v-3.629c0-1.075,0.47-1.68,1.344-1.68c0.269,0,0.605,0.067,0.874,0.134l0.403-1.344
	C51.035,40.771,50.632,40.771,50.363,40.771L50.363,40.771L50.363,40.771z M32.285,41.443c-0.672-0.47-1.613-0.672-2.621-0.672
	c-1.613,0-2.688,0.806-2.688,2.083c0,1.075,0.806,1.68,2.218,1.882l0.672,0.067c0.739,0.134,1.143,0.336,1.143,0.672
	c0,0.47-0.538,0.806-1.479,0.806c-0.941,0-1.68-0.336-2.151-0.672l-0.672,1.075c0.739,0.538,1.747,0.806,2.755,0.806
	c1.882,0,2.957-0.874,2.957-2.083c0-1.143-0.874-1.747-2.218-1.949l-0.672-0.067c-0.605-0.067-1.075-0.202-1.075-0.605
	c0-0.47,0.47-0.739,1.21-0.739c0.806,0,1.613,0.336,2.016,0.538L32.285,41.443L32.285,41.443z M69.786,40.771
	c-0.806,0-1.344,0.403-1.68,0.941v-0.806h-1.411v6.452h1.411v-3.629c0-1.075,0.47-1.68,1.344-1.68c0.269,0,0.605,0.067,0.874,0.134
	l0.403-1.344C70.458,40.771,70.055,40.771,69.786,40.771L69.786,40.771L69.786,40.771z M51.774,44.131
	c0,1.949,1.344,3.36,3.428,3.36c0.941,0,1.613-0.202,2.285-0.739l-0.672-1.143c-0.538,0.403-1.075,0.605-1.68,0.605
	c-1.143,0-1.949-0.806-1.949-2.083c0-1.21,0.806-2.016,1.949-2.083c0.605,0,1.143,0.202,1.68,0.605l0.672-1.143
	c-0.672-0.538-1.344-0.739-2.285-0.739C53.119,40.771,51.774,42.182,51.774,44.131L51.774,44.131L51.774,44.131z M64.813,44.131
	v-3.226h-1.411v0.806c-0.47-0.605-1.143-0.941-2.016-0.941c-1.815,0-3.226,1.411-3.226,3.36c0,1.949,1.411,3.36,3.226,3.36
	c0.941,0,1.613-0.336,2.016-0.941v0.806h1.411V44.131z M59.638,44.131c0-1.143,0.739-2.083,1.949-2.083
	c1.143,0,1.949,0.874,1.949,2.083c0,1.143-0.806,2.083-1.949,2.083C60.377,46.147,59.638,45.273,59.638,44.131L59.638,44.131z
	 M42.769,40.771c-1.882,0-3.226,1.344-3.226,3.36s1.344,3.36,3.293,3.36c0.941,0,1.882-0.269,2.621-0.874l-0.672-1.008
	c-0.538,0.403-1.21,0.672-1.882,0.672c-0.874,0-1.747-0.403-1.949-1.546h4.772v-0.538C45.793,42.115,44.583,40.771,42.769,40.771
	L42.769,40.771L42.769,40.771z M42.769,41.98c0.874,0,1.479,0.538,1.613,1.546h-3.36C41.156,42.652,41.761,41.98,42.769,41.98
	L42.769,41.98z M77.783,44.131v-5.78h-1.411v3.36c-0.47-0.605-1.143-0.941-2.016-0.941c-1.815,0-3.226,1.411-3.226,3.36
	c0,1.949,1.411,3.36,3.226,3.36c0.941,0,1.613-0.336,2.016-0.941v0.806h1.411V44.131z M72.608,44.131
	c0-1.143,0.739-2.083,1.949-2.083c1.143,0,1.949,0.874,1.949,2.083c0,1.143-0.806,2.083-1.949,2.083
	C73.348,46.147,72.608,45.273,72.608,44.131L72.608,44.131z M25.43,44.131v-3.226h-1.411v0.806c-0.47-0.605-1.143-0.941-2.016-0.941
	c-1.815,0-3.226,1.411-3.226,3.36c0,1.949,1.411,3.36,3.226,3.36c0.941,0,1.613-0.336,2.016-0.941v0.806h1.411V44.131z
	 M20.187,44.131c0-1.143,0.739-2.083,1.949-2.083c1.143,0,1.949,0.874,1.949,2.083c0,1.143-0.806,2.083-1.949,2.083
	C20.927,46.147,20.187,45.273,20.187,44.131z"/>
<rect x="36.688" y="9.876" class="st1" width="11.623" height="20.885"/>
<path class="st2" d="M37.426,20.319c0-4.243,1.993-8.007,5.055-10.443c-2.251-1.771-5.092-2.841-8.192-2.841
	c-7.343,0-13.284,5.941-13.284,13.284s5.941,13.284,13.284,13.284c3.1,0,5.941-1.07,8.192-2.841
	C39.419,28.363,37.426,24.562,37.426,20.319z"/>
<path class="st3" d="M63.994,20.319c0,7.343-5.941,13.284-13.284,13.284c-3.1,0-5.941-1.07-8.192-2.841
	c3.1-2.435,5.055-6.199,5.055-10.443s-1.993-8.007-5.055-10.443c2.251-1.771,5.092-2.841,8.192-2.841
	C58.053,7.035,63.994,13.013,63.994,20.319z"/>
</svg>
