<?xml version="1.0" encoding="UTF-8"?><svg id="Layer_2" xmlns="http://www.w3.org/2000/svg" viewBox="0 0 729 134.2"><defs><style>.cls-1{fill:#05112d;}</style></defs><g id="Layer_1-2"><path class="cls-1" d="M112.62,103.16c-6.83-3.74-12.13-9.06-15.94-15.9-3.81-6.84-5.73-14.63-5.73-23.41s1.95-16.57,5.84-23.47c3.89-6.89,9.31-12.24,16.19-16.04,6.91-3.8,14.84-5.71,23.81-5.71,9.76,0,18.28,2.28,25.48,6.84,7.22,4.56,12.58,10.83,16.14,18.77,3.53,7.96,4.74,16.72,3.55,26.28h-65.76c.54,3.32,1.78,6.19,3.7,8.67,1.92,2.48,4.37,4.36,7.34,5.71,2.96,1.35,6.07,2.03,9.28,2.03,3.87,0,7.36-.84,10.55-2.56,3.19-1.69,5.61-4.16,7.34-7.37h26.1c-3.05,9.85-8.55,17.59-16.48,23.27-7.93,5.68-17.38,8.53-28.33,8.53-8.6,0-16.31-1.89-23.13-5.63h.06ZM151.75,47.27c-1.89-2-4.09-3.57-6.6-4.7-2.51-1.13-5.3-1.69-8.35-1.69s-5.87.56-8.46,1.69c-2.6,1.13-4.85,2.67-6.71,4.7-1.89,2-3.36,4.42-4.43,7.18l38.88-.14c-.99-2.67-2.43-5.04-4.32-7.03Z"/><path class="cls-1" d="M179.46,20.12h26.77l14.56,38.19-1.78,32.41,27.99-70.6h26.77l-34.02,87.21h-26.24l-34.02-87.21h-.03Z"/><path class="cls-1" d="M292.9,103.16c-6.94-3.74-12.36-9.06-16.19-15.96-3.86-6.89-5.78-14.75-5.78-23.61s1.92-16.8,5.78-23.55c3.86-6.75,9.25-12.02,16.19-15.81,6.94-3.8,14.9-5.71,23.87-5.71s16.93,1.91,23.87,5.71c6.94,3.8,12.36,9.09,16.19,15.81,3.86,6.75,5.78,14.6,5.78,23.55s-1.92,16.71-5.78,23.61c-3.86,6.89-9.25,12.21-16.19,15.96-6.94,3.74-14.9,5.63-23.87,5.63s-16.93-1.89-23.87-5.63ZM327.07,82.17c2.99-1.74,5.36-4.22,7.05-7.46,1.69-3.21,2.57-6.92,2.57-11.14s-.82-7.74-2.48-10.86c-1.67-3.12-4.01-5.57-7-7.32-2.99-1.74-6.49-2.62-10.41-2.62s-7.28.87-10.3,2.62c-3.02,1.74-5.36,4.19-7.05,7.32-1.69,3.12-2.57,6.75-2.57,10.86s.85,7.91,2.57,11.14c1.69,3.21,4.06,5.71,7.05,7.46,2.99,1.74,6.43,2.62,10.3,2.62s7.28-.87,10.3-2.62h-.03Z"/><path class="cls-1" d="M435.51,106.82v-13.42c-3.1,3.12-6.83,5.52-11.14,7.18-4.32,1.66-8.97,2.48-13.99,2.48-7.62,0-14.47-1.77-20.57-5.29-6.09-3.52-10.86-8.47-14.33-14.83-3.44-6.36-5.16-13.54-5.16-21.58s1.72-15.7,5.16-22.15c3.44-6.44,8.24-11.48,14.33-15.08,6.09-3.6,12.95-5.43,20.57-5.43,5.02,0,9.68.84,13.99,2.56,4.32,1.69,8.01,4.16,11.17,7.37v-8.44h25.7v96.41c0,9.74-7.9,17.62-17.66,17.62h-65.06l13.53-23.47,39.51.08c2.2,0,3.98-1.77,3.98-3.94l-.03-.06ZM424.51,77.47c2.79-1.58,4.97-3.74,6.52-6.5,1.58-2.76,2.34-5.94,2.34-9.51s-.79-6.73-2.34-9.45c-1.58-2.73-3.75-4.87-6.52-6.44-2.76-1.58-5.95-2.34-9.54-2.34s-6.8.79-9.62,2.34c-2.82,1.55-4.99,3.71-6.52,6.44-1.52,2.73-2.29,5.88-2.29,9.45s.79,6.75,2.34,9.51c1.58,2.79,3.75,4.95,6.6,6.5,2.82,1.58,5.98,2.34,9.48,2.34s6.77-.79,9.54-2.34Z"/><path class="cls-1" d="M491.43,103.1c-6.23-3.8-11.12-9.12-14.67-15.96-3.56-6.84-5.3-14.69-5.3-23.55s1.78-16.57,5.3-23.41c3.53-6.84,8.44-12.13,14.67-15.9,6.23-3.74,13.12-5.63,20.65-5.63,5.3,0,10.13.93,14.53,2.81,4.4,1.89,8.15,4.61,11.29,8.19v-9.51h25.02v87.21h-25.02v-9.51c-3.13,3.49-6.91,6.19-11.29,8.1-4.4,1.91-9.22,2.9-14.53,2.9-7.53,0-14.42-1.89-20.65-5.71v-.03ZM526.95,81.77c2.99-1.74,5.33-4.19,7-7.32,1.67-3.12,2.48-6.75,2.48-10.86s-.85-7.46-2.57-10.61c-1.72-3.15-4.03-5.54-7-7.23-2.96-1.69-6.38-2.56-10.21-2.56s-7.25.84-10.16,2.56c-2.9,1.69-5.19,4.11-6.86,7.23-1.66,3.12-2.48,6.67-2.48,10.61s.82,7.74,2.48,10.86c1.67,3.12,3.95,5.57,6.86,7.32,2.91,1.74,6.29,2.62,10.16,2.62s7.28-.87,10.3-2.62Z"/><path class="cls-1" d="M659.18,103.16c-6.83-3.74-12.13-9.06-15.94-15.9-3.81-6.84-5.73-14.63-5.73-23.41s1.95-16.57,5.84-23.47c3.89-6.89,9.31-12.24,16.22-16.04,6.91-3.8,14.84-5.71,23.81-5.71,9.76,0,18.25,2.28,25.48,6.84,7.22,4.56,12.58,10.83,16.14,18.77,3.55,7.96,4.74,16.72,3.55,26.28h-65.76c.54,3.32,1.78,6.19,3.7,8.67,1.92,2.45,4.37,4.36,7.33,5.71,2.96,1.35,6.07,2.03,9.28,2.03,3.86,0,7.36-.84,10.55-2.56,3.19-1.69,5.61-4.16,7.33-7.37h26.1c-3.05,9.85-8.55,17.59-16.48,23.27-7.93,5.68-17.38,8.53-28.32,8.53-8.6,0-16.34-1.89-23.13-5.63h.03ZM698.34,47.27c-1.89-2-4.09-3.57-6.6-4.7-2.51-1.13-5.3-1.69-8.35-1.69s-5.87.56-8.46,1.69c-2.6,1.13-4.85,2.67-6.71,4.7-1.89,2-3.36,4.42-4.43,7.18l38.88-.14c-.99-2.67-2.42-5.04-4.32-7.03Z"/><path class="cls-1" d="M79.33,104.77V39.06L27.29,9.01,0,24.76l52.08,30.07v65.67l27.25-15.74Z"/><path class="cls-1" d="M27.7,50.96L9.36,30.17,0,24.76v73.88l27.7-16v-31.69Z"/><path class="cls-1" d="M615.34,78.96v-35.34h15.88l13.07-23.47h-28.95V0l-26.24,6.87v13.25h-17.04v23.47h37.88l-20.84,7.04v37.45c0,10.64,8.63,19.25,19.3,19.25h36.92l-14.38-24.43h-11.65c-2.2,0-3.98-1.77-3.98-3.97l.03.03Z"/></g></svg>