<?xml version="1.0" encoding="utf-8"?>
<!-- Generator: Adobe Illustrator 26.0.2, SVG Export Plug-In . SVG Version: 6.00 Build 0)  -->
<svg version="1.1" id="Layer_1" xmlns="http://www.w3.org/2000/svg" xmlns:xlink="http://www.w3.org/1999/xlink" x="0px" y="0px"
	 viewBox="0 0 125 47.85" style="enable-background:new 0 0 125 47.85;" xml:space="preserve">
<style type="text/css">
	.st0{fill:#061604;}
	.st1{fill:#9D9D9C;}
	.st2{fill:#3AAA35;}
	.st3{fill:#FFFFFF;}
</style>
<g>
	<g>
		<g>
			<path class="st0" d="M46.42,12.98l-1.89,0.45l-0.59-2.4l3.28-0.93h2.26v11.28h-3.06V12.98z"/>
			<path class="st0" d="M51.22,15.81v-0.03c0-3.17,2.02-5.83,5.2-5.83c3.19,0,5.17,2.62,5.17,5.79v0.03c0,3.17-2,5.83-5.2,5.83
				C53.2,21.6,51.22,18.98,51.22,15.81z M58.47,15.81v-0.03c0-1.79-0.83-3.09-2.08-3.09c-1.23,0-2.05,1.26-2.05,3.06v0.03
				c0,1.79,0.83,3.07,2.08,3.07S58.47,17.59,58.47,15.81z"/>
			<path class="st0" d="M62.9,15.81v-0.03c0-3.17,2.02-5.83,5.2-5.83c3.19,0,5.17,2.62,5.17,5.79v0.03c0,3.17-2,5.83-5.2,5.83
				C64.88,21.6,62.9,18.98,62.9,15.81z M70.15,15.81v-0.03c0-1.79-0.83-3.09-2.08-3.09c-1.23,0-2.05,1.26-2.05,3.06v0.03
				c0,1.79,0.83,3.07,2.08,3.07S70.15,17.59,70.15,15.81z"/>
			<path class="st0" d="M74.48,13.06v-0.03c0-1.65,1.15-3.01,2.9-3.01s2.88,1.34,2.88,2.99v0.03c0,1.63-1.17,2.99-2.9,2.99
				C75.65,16.03,74.48,14.69,74.48,13.06z M84.36,10.18h2.16l-4.77,6.1l-3.87,5.11h-2.16l4.72-6.03L84.36,10.18z M76.43,13.01v0.03
				c0,0.71,0.42,1.25,0.94,1.25c0.54,0,0.93-0.53,0.93-1.23v-0.03c0-0.72-0.4-1.26-0.94-1.26C76.8,11.76,76.43,12.29,76.43,13.01z
				 M81.97,18.55v-0.03c0-1.65,1.14-3.01,2.9-3.01c1.75,0,2.88,1.34,2.88,2.99v0.03c0,1.63-1.17,3.01-2.9,3.01
				C83.12,21.54,81.97,20.18,81.97,18.55z M85.8,18.55v-0.03c0-0.72-0.4-1.26-0.94-1.26c-0.58,0-0.93,0.53-0.93,1.25v0.03
				c0,0.71,0.42,1.25,0.94,1.25C85.41,19.78,85.8,19.25,85.8,18.55z"/>
			<path class="st0" d="M92.88,19.71l1.73-2.06c1.12,0.88,2.34,1.34,3.63,1.34c0.85,0,1.3-0.29,1.3-0.77v-0.03
				c0-0.48-0.37-0.72-1.9-1.09c-2.39-0.54-4.23-1.22-4.23-3.51v-0.03c0-2.08,1.65-3.58,4.34-3.58c1.91,0,3.39,0.51,4.61,1.49
				l-1.55,2.19c-1.02-0.74-2.14-1.1-3.14-1.1c-0.75,0-1.12,0.3-1.12,0.72v0.03c0,0.51,0.38,0.74,1.95,1.09
				c2.56,0.56,4.16,1.39,4.16,3.49v0.03c0,2.29-1.81,3.65-4.53,3.65C96.14,21.57,94.27,20.95,92.88,19.71z"/>
			<path class="st0" d="M103.15,19.71l1.73-2.06c1.12,0.88,2.34,1.34,3.63,1.34c0.85,0,1.3-0.29,1.3-0.77v-0.03
				c0-0.48-0.37-0.72-1.9-1.09c-2.39-0.54-4.23-1.22-4.23-3.51v-0.03c0-2.08,1.65-3.58,4.34-3.58c1.91,0,3.39,0.51,4.61,1.49
				l-1.55,2.19c-1.02-0.74-2.14-1.1-3.14-1.1c-0.75,0-1.12,0.3-1.12,0.72v0.03c0,0.51,0.38,0.74,1.95,1.09
				c2.56,0.56,4.16,1.39,4.16,3.49v0.03c0,2.29-1.81,3.65-4.53,3.65C106.42,21.57,104.54,20.95,103.15,19.71z"/>
			<path class="st0" d="M114.43,10.18h3.11v8.48h5.43v2.72h-8.53V10.18z"/>
		</g>
		<g>
			<path class="st1" d="M44.18,34.01l0.94-1.44c0.84,0.61,1.72,0.92,2.44,0.92c0.64,0,0.92-0.23,0.92-0.58v-0.03
				c0-0.48-0.75-0.64-1.6-0.9c-1.08-0.32-2.31-0.82-2.31-2.32v-0.03c0-1.57,1.27-2.45,2.83-2.45c0.98,0,2.05,0.33,2.89,0.89
				l-0.84,1.52c-0.77-0.45-1.53-0.72-2.09-0.72c-0.53,0-0.81,0.23-0.81,0.53v0.03c0,0.43,0.74,0.63,1.57,0.92
				c1.08,0.36,2.34,0.88,2.34,2.29v0.03c0,1.72-1.28,2.5-2.96,2.5C46.42,35.18,45.21,34.82,44.18,34.01z"/>
			<path class="st1" d="M51.66,31.21v-0.03c0-2.21,1.57-4.03,3.83-4.03c2.58,0,3.77,2.01,3.77,4.2c0,0.17-0.01,0.38-0.03,0.58h-5.38
				c0.22,1,0.91,1.52,1.89,1.52c0.74,0,1.27-0.23,1.88-0.79l1.26,1.11c-0.72,0.9-1.76,1.44-3.16,1.44
				C53.38,35.21,51.66,33.58,51.66,31.21z M57.12,30.56c-0.13-0.98-0.71-1.65-1.63-1.65c-0.91,0-1.5,0.65-1.67,1.65H57.12z"/>
			<path class="st1" d="M60.51,31.21v-0.03c0-2.21,1.69-4.03,4.06-4.03c1.46,0,2.37,0.49,3.09,1.3l-1.34,1.44
				c-0.49-0.52-0.98-0.85-1.76-0.85c-1.1,0-1.88,0.97-1.88,2.11v0.03c0,1.18,0.77,2.14,1.96,2.14c0.74,0,1.24-0.32,1.78-0.82
				l1.28,1.3c-0.75,0.82-1.62,1.41-3.16,1.41C62.22,35.21,60.51,33.42,60.51,31.21z"/>
			<path class="st1" d="M69.08,32.31V27.3h2.19v4.32c0,1.04,0.49,1.57,1.33,1.57c0.84,0,1.37-0.53,1.37-1.57V27.3h2.19v7.74h-2.19
				v-1.1c-0.51,0.65-1.15,1.24-2.27,1.24C70.04,35.18,69.08,34.08,69.08,32.31z"/>
			<path class="st1" d="M78.13,27.3h2.19v1.56c0.45-1.07,1.17-1.76,2.47-1.7v2.3h-0.12c-1.46,0-2.35,0.88-2.35,2.73v2.86h-2.19V27.3
				z"/>
			<path class="st1" d="M84.21,24.5h2.31v1.95h-2.31V24.5z M84.26,27.3h2.19v7.74h-2.19V27.3z"/>
			<path class="st1" d="M88.88,32.84v-3.67h-0.92V27.3h0.92v-1.98h2.19v1.98h1.82v1.88h-1.82v3.31c0,0.5,0.22,0.75,0.71,0.75
				c0.4,0,0.77-0.1,1.08-0.27v1.76c-0.46,0.27-1,0.45-1.73,0.45C89.79,35.17,88.88,34.63,88.88,32.84z"/>
			<path class="st1" d="M99.6,27.3h2.28l-2.97,7.92c-0.59,1.57-1.23,2.17-2.54,2.17c-0.79,0-1.39-0.2-1.95-0.53l0.74-1.59
				c0.29,0.17,0.65,0.3,0.94,0.3c0.38,0,0.58-0.12,0.77-0.5l-3.03-7.77h2.32l1.76,5.27L99.6,27.3z"/>
		</g>
	</g>
	<g>
		<path class="st2" d="M2.62,8C1.63,8.44,1,9.41,1,10.49v10.28c0,11.26,7.22,21.68,17.08,25.18c0.56,0.2,1.18,0.2,1.75,0
			c9.87-3.5,17.08-13.92,17.08-25.18V10.49c0-1.08-0.63-2.05-1.62-2.49L20.06,1.23c-0.7-0.31-1.51-0.31-2.21,0L2.62,8z"/>
		<path class="st3" d="M25.77,17.55h-1.14v-2.27c0-3.14-2.54-5.68-5.68-5.68s-5.68,2.54-5.68,5.68v2.27h-1.14
			c-1.25,0-2.27,1.02-2.27,2.27v11.36c0,1.25,1.02,2.27,2.27,2.27h13.63c1.25,0,2.27-1.02,2.27-2.27V19.82
			C28.04,18.57,27.02,17.55,25.77,17.55z M15.55,15.27c0-1.89,1.52-3.41,3.41-3.41s3.41,1.52,3.41,3.41v2.27h-6.82V15.27z
			 M25.77,31.18H12.14V19.82h13.63V31.18z M18.96,27.77c1.25,0,2.27-1.02,2.27-2.27c0-1.25-1.02-2.27-2.27-2.27
			s-2.27,1.02-2.27,2.27C16.68,26.75,17.71,27.77,18.96,27.77z"/>
	</g>
</g>
</svg>
