<?xml version="1.0" encoding="utf-8"?>
<!-- Generator: Adobe Illustrator 21.1.0, SVG Export Plug-In . SVG Version: 6.00 Build 0)  -->
<svg version="1.1" id="Layer_1" xmlns="http://www.w3.org/2000/svg" xmlns:xlink="http://www.w3.org/1999/xlink" x="0px" y="0px"
	 viewBox="0 0 85 55" style="enable-background:new 0 0 85 55;" xml:space="preserve">
<style type="text/css">
	.st0{fill:#B3B3B3;}
	.st1{fill:url(#SVGID_1_);}
</style>
<path class="st0" d="M80.327,1C82.352,1,84,2.648,84,4.673v45.654C84,52.352,82.352,54,80.327,54H4.673C2.648,54,1,52.352,1,50.327
	V4.673C1,2.648,2.648,1,4.673,1H80.327 M80.327,0H4.673C2.103,0,0,2.103,0,4.673v45.654C0,52.897,2.103,55,4.673,55h75.654
	C82.897,55,85,52.897,85,50.327V4.673C85,2.103,82.897,0,80.327,0L80.327,0z"/>
<linearGradient id="SVGID_1_" gradientUnits="userSpaceOnUse" x1="7.1237" y1="27.5" x2="77.875" y2="27.5">
	<stop  offset="0" style="stop-color:#272158"/>
	<stop  offset="1" style="stop-color:#164193"/>
</linearGradient>
<path class="st1" d="M33.986,16.479l-9.263,22.1H18.68l-4.558-17.637c-0.277-1.086-0.517-1.484-1.358-1.941
	c-1.374-0.747-3.644-1.446-5.64-1.881l0.135-0.641h9.729c1.239,0,2.355,0.824,2.636,2.253l2.408,12.789l5.95-15.042H33.986z
	 M57.665,31.363c0.026-5.832-8.065-6.154-8.009-8.76c0.018-0.792,0.772-1.635,2.425-1.851c0.818-0.107,3.077-0.19,5.636,0.988
	l1.005-4.686c-1.377-0.5-3.146-0.98-5.349-0.98c-5.65,0-9.628,3.004-9.66,7.305c-0.038,3.183,2.839,4.957,5.006,6.015
	c2.226,1.083,2.973,1.778,2.965,2.746c-0.017,1.484-1.777,2.137-3.422,2.163c-2.874,0.045-4.543-0.777-5.872-1.396l-1.035,4.843
	c1.335,0.613,3.8,1.148,6.358,1.174C53.718,38.925,57.646,35.959,57.665,31.363 M72.587,38.579h5.288l-4.615-22.1h-4.88
	c-1.098,0-2.023,0.638-2.434,1.621l-8.578,20.479h6.002l1.193-3.302h7.334L72.587,38.579z M66.208,30.749l3.01-8.298l1.732,8.298
	H66.208z M42.155,16.479l-4.727,22.1H31.71l4.729-22.1H42.155z"/>
</svg>
