<?xml version="1.0" encoding="utf-8"?>
<!-- Generator: Adobe Illustrator 26.0.3, SVG Export Plug-In . SVG Version: 6.00 Build 0)  -->
<svg version="1.1"
	 id="svg2" inkscape:version="0.91 r13725" sodipodi:docname="headerlogo-at.svg" xmlns:cc="http://creativecommons.org/ns#" xmlns:dc="http://purl.org/dc/elements/1.1/" xmlns:inkscape="http://www.inkscape.org/namespaces/inkscape" xmlns:rdf="http://www.w3.org/1999/02/22-rdf-syntax-ns#" xmlns:sodipodi="http://sodipodi.sourceforge.net/DTD/sodipodi-0.dtd" xmlns:svg="http://www.w3.org/2000/svg"
	 xmlns="http://www.w3.org/2000/svg" xmlns:xlink="http://www.w3.org/1999/xlink" x="0px" y="0px" width="163px" height="31px"
	 viewBox="0 0 163 31" style="enable-background:new 0 0 163 31;" xml:space="preserve">
<style type="text/css">
	.st0{fill:#D20000;}
</style>
<sodipodi:namedview  bordercolor="#666666" borderopacity="1" gridtolerance="10" guidetolerance="10" id="namedview20" inkscape:current-layer="svg2" inkscape:cx="69.401323" inkscape:cy="15.5" inkscape:pageopacity="0" inkscape:pageshadow="2" inkscape:window-height="801" inkscape:window-maximized="1" inkscape:window-width="1536" inkscape:window-x="-8" inkscape:window-y="-8" inkscape:zoom="1.7002558" objecttolerance="10" pagecolor="#ffffff" showgrid="false">
	</sodipodi:namedview>
<g>
	<path class="st0" d="M0.57,26.06h2.52c0.63,0,1.18-0.45,1.3-1.07l1.46-7.67h1.79c1.95,0,2.93,0.98,3.08,3.68
		c0.19,2.55,0.41,4.56,0.57,5.07l2.15,0c0.8,0,1.42-0.7,1.31-1.49c-0.16-1.16-0.28-2.77-0.44-4.46c-0.19-2.01-0.79-3.49-2.17-4.03
		l0.03-0.09c2.7-0.82,4.91-2.96,4.91-6.07c0-1.73-0.82-3.02-2.01-3.84C13.75,5.11,11.79,4.7,9.75,4.7c-1.22,0-2.48,0.08-3.59,0.22
		C5.19,5.04,4.42,5.79,4.23,6.76L0.57,26.06z M7.67,7.81c0.44-0.13,1.04-0.19,1.95-0.19c2.08,0,3.62,0.88,3.62,2.83
		c0,2.3-1.92,4.06-4.78,4.06H6.39L7.67,7.81z"/>
	<path class="st0" d="M28.47,22.5c-1.1,0.57-2.49,1.01-4.22,1.01c-1.45,0-2.55-0.53-3.14-1.57c-0.35-0.6-0.47-1.64-0.41-2.17
		c5.91,0.13,10.03-1.13,10.03-5.07c0-2.55-1.92-4.31-4.94-4.31c-5.28,0-8.68,5.03-8.68,9.66c0,3.74,2.04,6.35,6.29,6.35
		c1.49,0,3.11-0.28,4.47-0.81c0.56-0.22,0.89-0.8,0.82-1.4L28.47,22.5z M27.27,14.73c0,1.82-2.42,2.36-6.2,2.3
		c0.44-1.86,1.95-3.9,4.25-3.9c1.16,0,1.95,0.6,1.95,1.57V14.73L27.27,14.73z"/>
	<path class="st0" d="M32.42,12.28l2.35,13.77h2.9c0.48,0,0.92-0.26,1.16-0.68l8.15-14.64h-3.24c-0.5,0-0.96,0.29-1.19,0.74
		l-3.44,6.97c-0.85,1.82-1.29,2.93-1.67,3.9h-0.1c-0.06-1.01-0.25-2.17-0.44-3.99l-0.98-7.61h-2.21
		C32.91,10.74,32.28,11.48,32.42,12.28z"/>
	<path class="st0" d="M49.32,26.06c0.63,0,1.18-0.45,1.3-1.07L52.14,17c0.57-3.15,1.01-5.76,1.23-7.77L53.5,9.2
		c0.5,2.33,1.04,4.06,2.01,6.83l3.81,10.03h2.65c0.64,0,1.18-0.45,1.3-1.08l3.82-20.13h-2.37c-0.64,0-1.18,0.45-1.3,1.08l-1.56,8.24
		c-0.57,3.05-0.82,5.13-0.94,7.17h-0.06c-0.47-2.11-1.01-4.06-1.89-6.64l-3.74-9.85H52.1c-0.64,0-1.18,0.45-1.3,1.08l-3.82,20.13
		H49.32z"/>
	<path class="st0" d="M85.05,14.42h-6.22c-0.63,0-1.17,0.44-1.3,1.06l-0.38,1.9h3.74l-1.01,5.32c-0.63,0.25-1.57,0.47-2.7,0.47
		c-3.96,0-6.04-2.2-6.04-6.01c0-2.89,1.2-5.63,3.12-7.26c1.57-1.35,3.65-2.11,5.91-2.11c1.28,0,2.41,0.18,3.31,0.45
		c0.68,0.2,1.41-0.13,1.65-0.8l0.67-1.82c-0.75-0.41-2.67-0.97-5.35-0.97c-3.56,0-6.73,1.13-9.06,3.11
		c-2.74,2.36-4.25,5.91-4.25,9.69c0,2.42,0.76,4.75,2.42,6.35c1.67,1.67,4.06,2.48,6.98,2.48c2.2,0,4.26-0.47,5.72-0.91
		c0.47-0.14,0.81-0.54,0.9-1.02L85.05,14.42z"/>
	<path class="st0" d="M94.75,10.39c-5.22,0-8.84,4.5-8.84,9.69c0,3.65,2.39,6.32,6.26,6.32c5.22,0,8.87-4.47,8.87-9.66
		C101.04,13.35,98.87,10.39,94.75,10.39L94.75,10.39z M94.31,13.22c2.23,0,2.93,1.95,2.93,3.52c0,3.05-1.82,6.83-4.56,6.83
		c-1.86,0-2.99-1.48-2.99-3.59C89.68,17.12,91.38,13.22,94.31,13.22L94.31,13.22z"/>
	<path class="st0" d="M105.04,26.37c1.18,0,2.24-0.83,2.46-1.99c0.33-1.73-0.65-2.98-2.17-2.98c-1.54,0-2.63,1.28-2.58,2.81
		C102.79,25.42,103.82,26.37,105.04,26.37L105.04,26.37z"/>
	<path class="st0" d="M120.28,22.69c-0.79,0.35-1.86,0.72-3.27,0.72c-2.05,0-3.37-1.29-3.37-3.59c0-3.18,2.23-6.45,5.79-6.45
		c0.46,0,0.85,0.05,1.2,0.12c0.65,0.13,1.29-0.25,1.5-0.88l0.54-1.63c-0.57-0.25-1.76-0.6-3.11-0.6c-5.69,0-9.75,4.53-9.75,9.88
		c0,3.65,2.36,6.13,6.2,6.13c1.38,0,2.57-0.22,3.46-0.5c0.56-0.18,0.93-0.72,0.9-1.32L120.28,22.69z"/>
	<path class="st0" d="M131.56,10.39c-5.22,0-8.84,4.5-8.84,9.69c0,3.65,2.39,6.32,6.26,6.32c5.22,0,8.87-4.47,8.87-9.66
		C137.85,13.35,135.68,10.39,131.56,10.39L131.56,10.39z M131.12,13.22c2.23,0,2.93,1.95,2.93,3.52c0,3.05-1.82,6.83-4.56,6.83
		c-1.86,0-2.99-1.48-2.99-3.59C126.49,17.12,128.19,13.22,131.12,13.22L131.12,13.22z"/>
	<path class="st0" d="M141.49,26.06c0.64,0,1.19-0.46,1.3-1.09l1.12-6.18c0.57-3.11,2.52-5.41,4.21-5.41c1.48,0,1.82,1.04,1.82,2.2
		c0,0.56-0.06,1.16-0.19,1.79l-1.63,8.68h2.43c0.64,0,1.18-0.45,1.3-1.08l1.18-6.25c0.6-3.24,2.45-5.35,4.12-5.35
		c1.35,0,1.89,0.88,1.89,2.17c0,0.63-0.13,1.32-0.22,1.95l-1.6,8.56h2.46c0.64,0,1.18-0.45,1.3-1.08l1.49-7.89
		c0.13-0.82,0.25-1.95,0.25-2.61c0-2.74-1.63-4.09-3.74-4.09c-2.11,0.03-4.06,1.04-5.41,3.14c-0.13-1.63-1.23-3.14-3.62-3.14
		c-1.98,0-3.87,0.97-5.32,3.02h-0.03l0.32-2.67h-2.02c-0.66,0-1.21,0.48-1.31,1.13c-0.15,1.07-0.35,2.29-0.61,3.62l-1.95,10.57
		H141.49z"/>
</g>
</svg>
