<?xml version="1.0" encoding="utf-8"?>
<!-- Generator: Adobe Illustrator 26.3.1, SVG Export Plug-In . SVG Version: 6.00 Build 0)  -->
<svg version="1.1" id="Réteg_1" xmlns="http://www.w3.org/2000/svg" xmlns:xlink="http://www.w3.org/1999/xlink" x="0px" y="0px"
	 width="141.7px" height="141.7px" viewBox="0 0 141.7 141.7" style="enable-background:new 0 0 141.7 141.7;" xml:space="preserve"
	>
<style type="text/css">
	.st0{fill:url(#SVGID_1_);}
	.st1{fill:url(#SVGID_00000076570627292802600260000011317335824513922956_);}
	.st2{fill:#FFFFFF;}
</style>
<g>
	<radialGradient id="SVGID_1_" cx="78.503" cy="90.1098" r="71.79" gradientUnits="userSpaceOnUse">
		<stop  offset="0.2358" style="stop-color:#27225E"/>
		<stop  offset="0.5512" style="stop-color:#C8180B"/>
	</radialGradient>
	<path class="st0" d="M120.98,40.27c-8.47-19.08-27.56-32.4-49.79-32.4c-30.07,0-54.45,24.38-54.45,54.45
		c0,9.86,2.63,19.1,7.21,27.08c8.98,15.62,25.47,26.38,44.56,27.3c-0.31,0.21-0.56,0.45-0.68,0.73c-2.29,5.64-3.86,11.57-5.87,17.97
		c1.64-0.08,2.53-0.01,3.36-0.19c19.87-4.31,37.35-17.52,48.13-34.61c7.12-11.3,12.2-24.81,12.2-38.28
		C125.65,54.47,123.97,47.01,120.98,40.27z"/>
	
		<radialGradient id="SVGID_00000112628332078898153600000001593779805509113783_" cx="35.2077" cy="-6.8152" r="99.5594" gradientUnits="userSpaceOnUse">
		<stop  offset="0" style="stop-color:#972F88"/>
		<stop  offset="1" style="stop-color:#C8180B"/>
	</radialGradient>
	<circle style="fill:url(#SVGID_00000112628332078898153600000001593779805509113783_);" cx="70.85" cy="62.93" r="54.8"/>
	<g>
		<path class="st2" d="M32.2,59.23c-1.05,0-1.98-0.2-2.8-0.61c-0.82-0.41-1.51-0.97-2.06-1.67c-0.56-0.7-0.98-1.5-1.26-2.38
			c-0.29-0.88-0.43-1.79-0.43-2.73c0-0.98,0.16-1.96,0.49-2.94c0.33-0.97,0.8-1.9,1.41-2.79c0.62-0.88,1.34-1.67,2.19-2.36
			s1.79-1.23,2.85-1.62c1.06-0.39,2.18-0.59,3.38-0.59c1.6,0,2.92,0.35,3.93,1.06s1.68,1.62,1.99,2.75l-3.51,2.14
			c-0.12-0.62-0.34-1.11-0.68-1.45c-0.34-0.34-0.73-0.58-1.17-0.71c-0.44-0.13-0.89-0.2-1.35-0.2c-0.9,0-1.68,0.2-2.36,0.59
			c-0.67,0.39-1.24,0.91-1.69,1.56c-0.46,0.65-0.8,1.34-1.03,2.09c-0.23,0.75-0.34,1.46-0.34,2.15c0,0.75,0.12,1.44,0.37,2.06
			c0.25,0.62,0.61,1.12,1.1,1.5c0.49,0.38,1.1,0.57,1.82,0.57c0.44,0,0.92-0.08,1.42-0.25c0.51-0.16,0.99-0.42,1.45-0.77
			c0.46-0.35,0.85-0.81,1.18-1.39l2.9,1.94c-0.52,0.87-1.22,1.61-2.1,2.21c-0.88,0.61-1.81,1.06-2.81,1.38
			C34.08,59.07,33.12,59.23,32.2,59.23z"/>
		<path class="st2" d="M44.88,41.67h11.47l-0.76,3.54h-7.44l-0.71,3.39h6.39l-0.69,3.27h-6.39l-0.81,3.71h7.66l-0.74,3.54H41.17
			L44.88,41.67z"/>
		<path class="st2" d="M59.02,41.67H70.5l-0.76,3.54h-7.44l-0.71,3.39h6.39l-0.69,3.27h-6.39l-0.81,3.71h7.66l-0.74,3.54H55.32
			L59.02,41.67z"/>
		<path class="st2" d="M73.12,61.69c0.64-0.03,1.17-0.09,1.58-0.18c0.42-0.09,0.77-0.24,1.07-0.46c0.29-0.22,0.59-0.51,0.88-0.88
			l0.71-0.89l-1.92-12.92h4l0.71,9.35l0.84-1.35c0.41-0.66,0.78-1.31,1.12-1.95s0.64-1.29,0.9-1.94c0.26-0.65,0.5-1.32,0.7-2
			c0.2-0.68,0.39-1.39,0.55-2.11h3.78c-0.21,0.77-0.45,1.5-0.71,2.19c-0.26,0.69-0.57,1.41-0.93,2.15
			c-0.36,0.74-0.81,1.57-1.36,2.51c-0.55,0.93-1.23,2.04-2.05,3.33l-1.96,3.11c-0.59,0.92-1.16,1.69-1.72,2.31
			c-0.56,0.63-1.13,1.13-1.71,1.52c-0.58,0.39-1.2,0.67-1.85,0.84c-0.65,0.18-1.38,0.27-2.16,0.27L73.12,61.69z"/>
		<path class="st2" d="M92.99,59.35c-1.29,0-2.35-0.25-3.17-0.74c-0.82-0.49-1.42-1.15-1.8-1.96c-0.39-0.81-0.58-1.71-0.58-2.7
			c0-1.03,0.19-2.02,0.58-2.95c0.39-0.94,0.93-1.77,1.63-2.49c0.7-0.73,1.54-1.3,2.52-1.72c0.98-0.42,2.07-0.63,3.28-0.63
			c1.31,0,2.37,0.24,3.18,0.73c0.81,0.48,1.41,1.13,1.79,1.95c0.38,0.81,0.58,1.72,0.58,2.72c0,1.02-0.19,1.99-0.58,2.93
			c-0.39,0.93-0.93,1.77-1.63,2.5c-0.7,0.73-1.54,1.31-2.52,1.73C95.3,59.14,94.21,59.35,92.99,59.35z M93.56,56.04
			c0.44,0,0.86-0.1,1.27-0.3c0.4-0.2,0.76-0.48,1.07-0.85c0.31-0.37,0.56-0.8,0.74-1.29c0.18-0.49,0.27-1.02,0.27-1.57
			c0-0.52-0.08-0.97-0.23-1.35c-0.16-0.37-0.38-0.66-0.67-0.87c-0.29-0.21-0.66-0.31-1.1-0.31c-0.43,0-0.84,0.1-1.24,0.3
			c-0.4,0.2-0.76,0.48-1.08,0.85c-0.32,0.37-0.57,0.79-0.75,1.29c-0.18,0.49-0.27,1.03-0.27,1.6c0,0.49,0.08,0.93,0.23,1.31
			s0.39,0.68,0.69,0.88S93.13,56.04,93.56,56.04z"/>
		<path class="st2" d="M105.1,59.35c-2.01,0-3.02-1.02-3.02-3.06c0-0.28,0.02-0.55,0.06-0.84s0.09-0.6,0.16-0.93l1.77-8.16h3.9
			l-1.57,7.28c-0.08,0.35-0.12,0.67-0.12,0.94c0,0.97,0.41,1.45,1.23,1.45c0.31,0,0.62-0.06,0.93-0.18
			c0.31-0.12,0.64-0.31,0.98-0.58c0.34-0.27,0.68-0.62,1.01-1.05l1.69-7.87h3.93l-1.79,8.34c-0.02,0.1-0.03,0.19-0.05,0.27
			c-0.02,0.08-0.02,0.16-0.02,0.24c0,0.37,0.21,0.56,0.64,0.58l-0.71,3.32c-0.36,0.06-0.68,0.11-0.96,0.15
			c-0.28,0.03-0.52,0.05-0.71,0.05c-0.64,0-1.15-0.12-1.54-0.36c-0.39-0.24-0.58-0.64-0.58-1.19c0-0.06,0.01-0.13,0.03-0.21
			c0.02-0.07,0.03-0.17,0.05-0.28c0.02-0.11,0.03-0.23,0.05-0.36c-0.74,0.84-1.56,1.46-2.47,1.86
			C107.08,59.15,106.12,59.35,105.1,59.35z"/>
		<path class="st2" d="M37.48,84.54c0-0.16,0.01-0.32,0.02-0.48s0.04-0.33,0.07-0.51L39,76.91h-1.55l0.66-2.97h1.52l0.88-4.1h3.93
			l-0.88,4.1h2.48l-0.64,2.97h-2.48l-1.13,5.26c-0.02,0.06-0.03,0.13-0.04,0.2c-0.01,0.07-0.01,0.14-0.01,0.2
			c0,0.27,0.08,0.47,0.23,0.59s0.36,0.18,0.6,0.18c0.18,0,0.37-0.02,0.57-0.07c0.19-0.05,0.4-0.11,0.6-0.17
			c0.2-0.06,0.4-0.14,0.58-0.22L44.38,86c-0.39,0.16-0.81,0.32-1.26,0.47c-0.45,0.15-0.91,0.26-1.38,0.34
			c-0.47,0.08-0.93,0.12-1.39,0.12c-0.82,0-1.5-0.19-2.05-0.56C37.76,86.01,37.48,85.39,37.48,84.54z"/>
		<path class="st2" d="M49.54,68.76h3.93l-1.52,7.36c0.61-0.76,1.32-1.34,2.14-1.75c0.82-0.41,1.68-0.62,2.58-0.62
			c0.79,0,1.4,0.13,1.83,0.4c0.43,0.27,0.74,0.62,0.92,1.06c0.18,0.44,0.27,0.93,0.27,1.46c0,0.31-0.02,0.62-0.06,0.94
			c-0.04,0.32-0.09,0.64-0.16,0.94l-1.74,8.13h-3.93l1.55-7.1c0.03-0.18,0.06-0.34,0.07-0.49c0.02-0.15,0.03-0.3,0.03-0.45
			c0-0.5-0.12-0.86-0.34-1.1c-0.23-0.23-0.54-0.35-0.93-0.35c-0.26,0-0.58,0.09-0.95,0.27c-0.37,0.18-0.73,0.44-1.08,0.77
			c-0.35,0.33-0.65,0.72-0.9,1.16l-1.57,7.28h-3.93L49.54,68.76z"/>
		<path class="st2" d="M66.19,86.93c-1.11,0-2.07-0.23-2.89-0.68c-0.81-0.45-1.43-1.09-1.87-1.9c-0.43-0.81-0.65-1.75-0.65-2.79
			c0-1.08,0.21-2.09,0.64-3.03c0.42-0.94,1.01-1.76,1.77-2.48s1.63-1.28,2.64-1.69c1.01-0.41,2.09-0.62,3.25-0.62
			c0.98,0,1.83,0.14,2.54,0.42c0.71,0.28,1.26,0.69,1.65,1.23c0.38,0.54,0.58,1.2,0.58,1.97c0,1.37-0.64,2.41-1.93,3.13
			c-1.29,0.72-3.2,1.08-5.74,1.08c-0.49,0-1.03-0.01-1.61-0.04c-0.58-0.02-1.18-0.07-1.8-0.14L63.27,79
			c0.52,0.05,1.02,0.09,1.5,0.11c0.47,0.02,0.95,0.04,1.42,0.04c0.97,0,1.73-0.05,2.3-0.15c0.57-0.1,0.97-0.26,1.22-0.48
			c0.25-0.22,0.37-0.48,0.37-0.8c0-0.25-0.07-0.46-0.21-0.62c-0.14-0.16-0.33-0.29-0.56-0.39c-0.24-0.09-0.52-0.14-0.85-0.14
			c-0.54,0-1.04,0.14-1.5,0.41c-0.46,0.27-0.86,0.65-1.19,1.12c-0.34,0.48-0.6,1.03-0.79,1.64c-0.19,0.61-0.28,1.27-0.28,1.97
			c0,0.49,0.07,0.92,0.22,1.28c0.15,0.36,0.39,0.64,0.72,0.83c0.34,0.19,0.76,0.29,1.27,0.29c0.59,0,1.13-0.14,1.63-0.42
			c0.5-0.28,0.9-0.66,1.22-1.16l3.09,0.98c-0.44,0.67-1.02,1.27-1.74,1.78c-0.72,0.52-1.5,0.92-2.35,1.2
			C67.92,86.79,67.06,86.93,66.19,86.93z"/>
		<path class="st2" d="M76.71,73.94h3.61l-0.57,2.57c0.62-0.86,1.32-1.53,2.08-2.02c0.76-0.49,1.51-0.73,2.25-0.73
			c0.18,0,0.31,0,0.38,0c0.07,0,0.13,0.01,0.18,0.02l-0.74,3.51c-0.88,0-1.72,0.15-2.51,0.44c-0.78,0.29-1.41,0.72-1.87,1.29
			l-1.65,7.65h-3.93L76.71,73.94z"/>
		<path class="st2" d="M89.45,86.93c-1.11,0-2.07-0.23-2.89-0.68c-0.81-0.45-1.43-1.09-1.87-1.9s-0.65-1.75-0.65-2.79
			c0-1.08,0.21-2.09,0.64-3.03c0.42-0.94,1.01-1.76,1.77-2.48s1.63-1.28,2.64-1.69c1.01-0.41,2.09-0.62,3.25-0.62
			c0.98,0,1.83,0.14,2.54,0.42c0.71,0.28,1.26,0.69,1.65,1.23c0.38,0.54,0.58,1.2,0.58,1.97c0,1.37-0.64,2.41-1.93,3.13
			c-1.29,0.72-3.2,1.08-5.74,1.08c-0.49,0-1.03-0.01-1.61-0.04c-0.58-0.02-1.18-0.07-1.8-0.14L86.53,79
			c0.52,0.05,1.02,0.09,1.5,0.11c0.47,0.02,0.95,0.04,1.42,0.04c0.97,0,1.73-0.05,2.3-0.15c0.57-0.1,0.97-0.26,1.22-0.48
			c0.25-0.22,0.37-0.48,0.37-0.8c0-0.25-0.07-0.46-0.21-0.62c-0.14-0.16-0.33-0.29-0.56-0.39c-0.24-0.09-0.52-0.14-0.85-0.14
			c-0.54,0-1.04,0.14-1.5,0.41c-0.46,0.27-0.86,0.65-1.19,1.12c-0.34,0.48-0.6,1.03-0.79,1.64c-0.19,0.61-0.28,1.27-0.28,1.97
			c0,0.49,0.07,0.92,0.22,1.28c0.15,0.36,0.39,0.64,0.72,0.83c0.34,0.19,0.76,0.29,1.27,0.29c0.59,0,1.13-0.14,1.63-0.42
			s0.9-0.66,1.22-1.16l3.09,0.98c-0.44,0.67-1.02,1.27-1.74,1.78c-0.72,0.52-1.5,0.92-2.35,1.2C91.18,86.79,90.32,86.93,89.45,86.93
			z"/>
		<path class="st2" d="M97.71,86.69l0.88-4.08h3.93l-0.88,4.08H97.71z M99.21,79.76l2.24-10.51h3.93l-2.24,10.51H99.21z"/>
	</g>
</g>
</svg>
